<svg xmlns="http://www.w3.org/2000/svg" viewBox="60 50 180 200"><defs><clipPath id="clip-1"><rect x="0" y="0" transform="scale(0.14648,0.14648)" width="2048" height="2048" fill="none"/></clipPath><linearGradient x1="148.35059" y1="143.00713" x2="161.61621" y2="54.74165" gradientUnits="userSpaceOnUse" id="mask-blue-gradient"><stop offset="0" stop-color="#777777"/><stop offset="1" stop-color="#a8a8a8"/></linearGradient></defs><g fill="none" fill-rule="nonzero" stroke="none" stroke-width="1" stroke-linecap="butt" stroke-linejoin="miter" stroke-miterlimit="10" stroke-dasharray="" stroke-dashoffset="0"><path d="M75.05625,129.02197c0.60688,-1.80601 2.38726,-5.63467 3.18442,-7.47349l6.2521,-14.45186l9.67573,-22.36772c4.55332,-10.55347 7.63857,-21.82529 19.68516,-26.06147c2.38022,-0.81914 4.86094,-1.31016 7.37373,-1.45942c2.75698,-0.15381 7.07051,0.0501 10.00444,0.05654l21.83115,0.02329l17.20166,-0.02124c2.67773,-0.0104 7.31543,-0.17197 9.86865,0.06841c2.88428,0.2458 5.70117,1.01631 8.30859,2.27388c9.19922,4.44565 11.55762,11.39927 15.28271,20.03057l7.68896,17.83066l8.42725,19.49136c1.46045,3.33618 3.9126,8.55352 5.10352,11.94141c0.6167,0.89795 1.18945,2.3064 1.25537,3.3958c4.98193,-0.0397 10.50439,-0.78149 14.31299,3.06299c3.93311,3.96987 3.02637,8.47764 2.02148,13.40933c-1.01074,4.95117 -1.28613,9.55957 -5.08887,13.35205c-1.36523,1.34619 -2.97217,2.42285 -4.7373,3.17285c-0.77783,0.32373 -4.42676,1.32568 -4.59082,1.81348c-1.3667,4.06787 -1.4502,10.02393 -3.91992,13.70215c0.15234,2.08887 -0.84521,5.55908 -1.24658,7.71094c-0.17139,0.91992 -0.95361,5.08008 -1.25684,5.66602c-1.06201,5.38623 -2.42871,11.19287 -3.60205,16.59375l-1.7373,7.70068c-0.78662,3.51855 -1.19824,6.3208 -2.82275,9.63867c-1.85449,3.83496 -4.69189,7.11035 -8.2251,9.49219c-2.94873,1.97021 -8.44043,4.2627 -12.02637,4.10449c-1.72559,0.30615 -4.91895,0.14795 -6.76611,0.14648l-10.36084,-0.01025l-32.57886,0.00146l-24.6668,0.00293c-10.01748,-0.00146 -18.16978,1.11035 -26.35928,-6.01904c-2.90024,-2.50928 -5.16636,-5.66895 -6.61348,-9.21973c-1.35308,-3.24902 -2.32734,-8.68799 -3.12568,-12.34863l-3.87715,-17.71143l-2.06543,-9.39404c-0.3769,-1.74756 -0.81152,-3.72803 -1.01206,-5.49609c-0.05581,-0.49365 -0.04307,-0.62549 -0.14766,-1.17334l-0.02959,-0.15088c-0.61611,-1.16602 -1.10405,-2.39502 -1.45547,-3.6665c-0.42539,-1.49268 -1.7606,-8.71875 -2.44702,-9.79541c-0.12129,-0.19043 -4.07241,-1.38281 -4.92759,-1.79297c-1.53252,-0.74414 -2.94375,-1.7168 -4.18594,-2.88281c-3.77651,-3.5918 -4.17861,-8.5415 -5.09619,-13.34326c-0.34805,-1.81934 -0.97676,-4.54468 -0.99595,-6.31699c-0.02695,-2.67334 1.03096,-5.24341 2.93203,-7.1231c4.02788,-4.02671 9.40679,-3.15615 14.80269,-3.14077c-0.38745,-1.16675 0.24009,-2.10454 0.75234,-3.26191zM86.69546,132.29531l15.13257,-0.02139c0.0813,7.89404 -0.03574,15.81592 0,23.70557c0.01333,2.90918 -0.21914,9.65332 0.31846,12.09961c0.5625,2.55469 1.85464,4.89111 3.71938,6.72656c4.79121,4.71826 9.59707,3.95654 15.78794,3.96387l15.375,-0.01172c17.51807,-0.00586 35.04785,0.01758 52.56738,-0.01025c4.02246,-0.00732 7.16016,-0.96533 10.06055,-3.91553c1.78857,-1.79736 3.03516,-4.06055 3.59912,-6.53174c0.52441,-2.31885 0.3501,-9.45996 0.34863,-12.14209c-0.06152,-7.96143 -0.0542,-15.92212 0.02051,-23.88267l10.16309,0.00923l0.0835,-0.13169c-0.93457,-1.58555 -1.54834,-2.71143 -2.23535,-4.46968c-1.21143,-3.01875 -2.83008,-6.46494 -4.13965,-9.50786l-10.35059,-23.93906l-4.83252,-11.15522c-0.88623,-2.0811 -2.39941,-5.94551 -3.51855,-7.71665c-1.36963,-2.16753 -3.32227,-3.90586 -5.63379,-5.01636c-3.32666,-1.62686 -7.26855,-1.19487 -10.91016,-1.25435c-6.21533,-0.06519 -12.43066,-0.08159 -18.646,-0.04922l-19.05469,-0.023c-4.02305,-0.01201 -8.01592,-0.02446 -12.04482,0.06665c-4.56987,0.10342 -8.40029,2.16445 -10.97505,5.96484c-1.27734,1.88555 -2.12666,4.18403 -3.01685,6.29019c-1.00415,2.40161 -2.02969,4.79429 -3.07632,7.17773l-11.46958,26.46577c-1.76367,4.05923 -3.62285,8.67363 -5.52715,12.61582c-0.44077,1.24482 -1.31997,3.30103 -1.91865,4.49766zM193.28027,241.71826c3.58594,0.1582 9.07764,-2.13428 12.02637,-4.10449c3.5332,-2.38184 6.37061,-5.65723 8.2251,-9.49219c1.62451,-3.31787 2.03613,-6.12012 2.82275,-9.63867l1.7373,-7.70068c1.17334,-5.40088 2.54004,-11.20752 3.60205,-16.59375c0.30322,-0.58594 1.08545,-4.74609 1.25684,-5.66602c0.40137,-2.15186 1.39893,-5.62207 1.24658,-7.71094c-0.11572,0.11719 -0.8833,1.22168 -1.08691,1.47217c-1.27002,1.56006 -2.48291,2.84033 -4.15869,3.9668c-2.31592,1.5498 -4.99219,2.47559 -7.771,2.68799c-2.61475,0.21094 -6.51709,0.09814 -9.23584,0.09375l-15.05566,0.00732l-48.54067,-0.01465l-34.01528,-0.01172l-9.27231,0.00439c-4.31953,0 -8.23286,0.29883 -12.1897,-1.77832c-3.34731,-1.75635 -5.16914,-3.77783 -7.19385,-6.89355l0.02959,0.15088c0.10459,0.54785 0.09185,0.67969 0.14766,1.17334c0.20054,1.76807 0.63516,3.74854 1.01206,5.49609l2.06543,9.39404l3.87715,17.71143c0.79834,3.66064 1.77261,9.09961 3.12568,12.34863c1.44712,3.55078 3.71323,6.71045 6.61348,9.21973c8.1895,7.12939 16.3418,6.01758 26.35928,6.01904l24.6668,-0.00293l32.57886,-0.00146l10.36084,0.01025c1.84717,0.00146 5.04053,0.15967 6.76611,-0.14648z" fill="#f7f7f7"/><path d="M198.06006,111.96475l-0.00439,37.78916l0.01318,10.71826c0.00293,1.9585 0.12451,4.39893 -0.15527,6.30176c-0.5127,3.48047 -3.81738,6.07178 -7.25391,6.14502c-4.73437,0.10254 -9.44385,0.03369 -14.1665,0.03662l-31.00312,-0.02344l-19.71313,0.03076c-3.44868,0.01758 -6.99492,0.12598 -10.42559,-0.07031c-3.37031,-0.19189 -6.49893,-3.55957 -6.62417,-6.91846c-0.104,-2.79053 -0.05288,-5.6543 -0.0479,-8.47119v-15.2231l0.01084,-29.11611c0.00688,-2.89482 -0.27671,-11.23638 0.39126,-13.67681c0.76904,-2.76562 2.61284,-5.10864 5.12007,-6.5064c1.32524,-0.72495 2.79185,-1.154 4.29888,-1.25728c2.82129,-0.19409 7.754,-0.04687 10.69512,-0.046l20.23916,-0.00015l19.70947,-0.01128c1.72559,-0.00205 9.05859,-0.14473 10.36963,0.22471c4.85596,1.64531 8.03906,6.68672 11.79639,10.07153c1.25537,1.13145 3.42773,3.31787 4.48975,4.60635c0.4834,0.59224 0.89648,1.23765 1.23193,1.92378c0.63428,1.27368 0.78516,2.08242 1.02832,3.47256z" fill="#f7f7f7"/><path d="M179.51367,91.89053c4.85596,1.64531 8.03906,6.68672 11.79639,10.07153c1.25537,1.13145 3.42773,3.31787 4.48975,4.60635c0.4834,0.59224 0.89648,1.23765 1.23193,1.92378c0.63428,1.27368 0.78516,2.08242 1.02832,3.47256c-1.27002,-0.22456 -3.23437,-0.01948 -4.58789,-0.07207c-3.99756,-0.15513 -8.30713,0.85796 -11.4668,-2.24839c-0.99463,-0.97998 -1.72119,-2.19946 -2.10791,-3.54111c-0.61523,-2.16211 -0.3501,-11.2894 -0.38379,-14.21265z" fill="#d6d6d6"/><path d="M127.53369,126.04717c4.72471,-0.56499 9.02007,2.78848 9.61802,7.50923c0.59795,4.72061 -2.72563,9.03926 -7.44199,9.67002c-4.76309,0.63706 -9.13389,-2.72651 -9.7377,-7.49399c-0.60396,-4.76733 2.79009,-9.11455 7.56167,-9.68525z" fill="#969696"/><path d="M131.69297,130.748c0.57407,0.15454 1.44946,1.1877 1.89727,1.65293l-6.29355,6.36196c-0.61626,-0.56953 -1.26489,-1.23545 -1.86694,-1.829c-0.70298,-0.66812 -1.31382,-1.32964 -1.97373,-2.03862c0.50376,-0.55371 1.2356,-1.23735 1.78315,-1.77656l2.02881,1.99746c1.48506,-1.4458 2.96016,-2.90186 4.425,-4.36816z" fill="#f7f7f7"/><path d="M127.68574,103.05879c4.73438,-0.48486 8.97275,2.94229 9.4894,7.67344c0.5168,4.73101 -2.88193,8.99224 -7.60942,9.54067c-4.77261,0.55371 -9.08335,-2.88442 -9.60498,-7.66069c-0.52163,-4.77627 2.94536,-9.06387 7.725,-9.55342z" fill="#969696"/><path d="M131.70601,107.74424c0.48706,0.20112 1.47422,1.25859 1.88833,1.67109l-6.29341,6.35757c-0.58887,-0.55005 -1.21113,-1.18945 -1.78916,-1.76089c-0.69771,-0.66533 -1.36553,-1.37593 -2.03452,-2.07085c0.5625,-0.61948 1.14155,-1.17393 1.73906,-1.75752l2.05078,1.96113c1.4811,-1.40493 2.98682,-2.95342 4.43892,-4.40054z" fill="#f7f7f7"/><path d="M127.50059,149.04053c4.70889,-0.58887 9.01172,2.729 9.64116,7.43262c0.6293,4.70361 -2.6502,9.03516 -7.34795,9.70459c-4.7562,0.67969 -9.15337,-2.6499 -9.79058,-7.41211c-0.63721,-4.76221 2.73018,-9.12891 7.49736,-9.7251z" fill="#969696"/><path d="M131.67773,153.74707c0.6041,0.11572 1.45649,1.1499 1.92202,1.6333c-2.09282,2.12842 -4.20132,4.23926 -6.32534,6.33691l-1.7521,-1.73145c-0.77197,-0.74268 -1.33843,-1.3418 -2.05371,-2.1416c0.57246,-0.58887 1.18081,-1.16016 1.77334,-1.72998c0.68013,0.64453 1.36611,1.34912 2.0335,2.0127z" fill="#f7f7f7"/><path d="M147.22998,153.87598c1.49561,-0.04395 3.01758,-0.05127 4.51904,-0.04395c9.12158,0.04395 18.25635,-0.03076 27.37354,0.09521c0.42627,0.00439 0.88477,0.2915 1.19238,0.57275c0.50684,0.4585 0.79688,1.11035 0.79688,1.79443c-0.00879,2.40088 -2.25586,2.37598 -3.95654,2.35547l-21.23291,-0.00146c-3.1333,0.00293 -8.52832,0.16113 -11.53184,-0.08057c-1.93608,-1.53369 -2.02266,-3.07764 0.02563,-4.60547z" fill="#262626"/><path d="M149.89746,130.73643l18.64307,0.02651c3.54785,0.00161 7.42676,-0.07559 10.95264,0.05273c1.62598,1.04092 1.61279,1.45942 1.54834,3.28184c-0.5918,0.68818 -0.73828,0.85298 -1.46045,1.41328c-1.6084,0.0813 -3.69727,0.02329 -5.33789,0.01626c-9.64453,-0.00308 -20.16943,0.22632 -29.73809,-0.03428c-0.27378,-0.19805 -0.53789,-0.40942 -0.79102,-0.6334c-0.97998,-0.88052 -1.03872,-2.53711 -0.1437,-3.37295c1.19648,-1.11738 4.69526,-0.7374 6.3271,-0.75z" fill="#262626"/><path d="M144.4103,107.69678c1.18096,-0.06738 2.4813,-0.07983 3.66636,-0.06489c7.31836,0.09243 14.74365,-0.17754 22.05029,0.0397c0.45703,0.28843 0.88477,0.63516 1.31396,0.96636c0.59473,1.80278 0.38672,2.52773 -1.11475,3.65889c-2.68066,0.26265 -8.97656,0.1292 -11.86523,0.11162c-4.16455,-0.02534 -10.03271,0.20903 -13.98472,-0.07485c-2.03438,-1.41299 -2.09927,-3.19014 -0.06592,-4.63682z" fill="#262626"/><path d="M75.67734,180.3457c2.02471,3.11572 3.84653,5.13721 7.19385,6.89355c3.95684,2.07715 7.87017,1.77832 12.1897,1.77832l9.27231,-0.00439l34.01528,0.01172l48.54067,0.01465l15.05566,-0.00732c2.71875,0.00439 6.62109,0.11719 9.23584,-0.09375c2.77881,-0.2124 5.45508,-1.13818 7.771,-2.68799c1.67578,-1.12646 2.88867,-2.40674 4.15869,-3.9668c0.20361,-0.25049 0.97119,-1.35498 1.08691,-1.47217c0.15234,2.08887 -0.84521,5.55908 -1.24658,7.71094c-0.17139,0.91992 -0.95361,5.08008 -1.25684,5.66602c-1.06201,5.38623 -2.42871,11.19287 -3.60205,16.59375l-1.7373,7.70068c-0.78662,3.51855 -1.19824,6.3208 -2.82275,9.63867c-1.85449,3.83496 -4.69189,7.11035 -8.2251,9.49219c-2.94873,1.97021 -8.44043,4.2627 -12.02637,4.10449c-1.72559,0.30615 -4.91895,0.14795 -6.76611,0.14648l-10.36084,-0.01025l-32.57886,0.00146l-24.6668,0.00293c-10.01748,-0.00146 -18.16978,1.11035 -26.35928,-6.01904c-2.90024,-2.50928 -5.16636,-5.66895 -6.61348,-9.21973c-1.35308,-3.24902 -2.32734,-8.68799 -3.12568,-12.34863l-3.87715,-17.71143l-2.06543,-9.39404c-0.3769,-1.74756 -0.81152,-3.72803 -1.01206,-5.49609c-0.05581,-0.49365 -0.04307,-0.62549 -0.14766,-1.17334zM119.74336,227.83008c1.65498,-0.51123 3.32373,-1.73145 3.22046,-3.69727c-0.20859,-3.97119 -0.91436,-7.95557 -1.34268,-11.91064c-0.49819,-3.65479 -0.76289,-7.50293 -1.63403,-11.06543c-0.48091,-1.96582 -3.11089,-2.50928 -4.8334,-2.34814c-1.31206,0.5625 -2.39941,1.30371 -2.97334,2.66748c-0.28623,0.67969 -0.15571,1.73438 -0.09932,2.4624c0.17959,2.32324 2.48027,20.90332 2.95005,21.84668c0.50024,1.00342 1.50176,1.66406 2.5604,1.95264c0.71631,0.19482 1.4231,0.20654 2.15186,0.09229zM181.83691,227.88721c1.38428,-0.43359 2.34375,-0.93896 3.03955,-2.28809c0.49658,-0.96387 2.69678,-19.54541 2.85205,-21.90088c0.04688,-0.71924 0.11719,-1.72998 -0.13184,-2.39941c-0.39258,-1.04736 -1.39893,-1.87061 -2.41846,-2.25879c-0.7793,-0.29736 -1.61133,-0.34277 -2.43164,-0.23437c-1.01367,0.3457 -2.26025,0.92578 -2.74951,1.95557c-0.62988,1.32861 -2.88281,19.87354 -3.03223,22.52344c-0.03809,0.68262 -0.07617,1.53223 0.14648,2.17822c0.31201,0.90674 1.2085,1.6626 2.06396,2.03174c0.83936,0.36328 1.75488,0.46582 2.66162,0.39258zM150.3252,227.90771c1.32568,-0.35889 2.45215,-0.93896 3.1333,-2.18848c0.28564,-0.52441 0.30322,-1.20557 0.33691,-1.79297c0.14502,-2.50049 0.27246,-21.39404 -0.20215,-22.71973c-0.35156,-0.98584 -1.14258,-1.72119 -2.08154,-2.14746c-0.79248,-0.35889 -1.57324,-0.43213 -2.43311,-0.40283c-2.31738,0.71484 -3.41909,1.62158 -3.44663,4.1543c-0.07339,6.78076 -0.08115,13.56738 -0.08599,20.34961c-0.00234,3.19043 1.46865,4.8457 4.7792,4.74756z" fill="#8d8d8d"/><path d="M200.20166,238.59668c-2.00391,0.86279 -4.12646,1.41504 -6.29736,1.6377c-2.896,0.3208 -9.14648,0.17139 -12.36768,0.14502c-3.94336,-0.03223 -9.54053,0.19189 -13.35205,-0.06006l16.93652,-0.13916c2.99414,-0.02344 6.24756,0.04395 9.23877,-0.25049c1.07373,-0.12891 2.12402,-0.59912 3.1333,-0.86426c6.27246,-1.64502 11.77441,-6.3252 14.45215,-12.23877c1.45752,-3.21973 2.11523,-7.17627 2.89014,-10.65967l2.58545,-11.64551c0.74561,-3.375 1.25684,-5.93262 2.36133,-9.22852c-0.03076,0.72656 -0.74854,4.25537 -0.97412,4.96436l-0.04834,0.14502l0.13037,0.07178c1.5542,-0.48926 1.40625,-0.56689 1.62744,-2.0376c0.13037,-0.86426 0.70313,-3.66357 1.02393,-4.43262l0.15234,0.18457c-1.06201,5.38623 -2.42871,11.19287 -3.60205,16.59375l-1.7373,7.70068c-0.78662,3.51855 -1.19824,6.3208 -2.82275,9.63867c-1.85449,3.83496 -4.69189,7.11035 -8.2251,9.49219c-2.94873,1.97021 -8.44043,4.2627 -12.02637,4.10449c-0.97412,-0.10547 -2.79053,0.00146 -3.86426,0.01611c-1.93506,0.01758 -3.87158,0.01611 -5.80664,-0.00293l-24.44531,-0.09961c0.15527,-0.18164 29.09766,-0.02344 31.99512,-0.07324c2.62793,-0.04687 5.23389,-0.46143 7.98047,-1.19531c0.36035,-0.52295 0.73682,-1.2085 1.06201,-1.7666z" fill="#b5b5b5"/><path d="M75.05625,129.02197c0.60688,-1.80601 2.38726,-5.63467 3.18442,-7.47349l6.2521,-14.45186l9.67573,-22.36772c4.55332,-10.55347 7.63857,-21.82529 19.68516,-26.06147c2.38022,-0.81914 4.86094,-1.31016 7.37373,-1.45942c2.75698,-0.15381 7.07051,0.0501 10.00444,0.05654l21.83115,0.02329l17.20166,-0.02124c2.67773,-0.0104 7.31543,-0.17197 9.86865,0.06841c2.88428,0.2458 5.70117,1.01631 8.30859,2.27388c9.19922,4.44565 11.55762,11.39927 15.28271,20.03057l7.68896,17.83066l8.42725,19.49136c1.46045,3.33618 3.9126,8.55352 5.10352,11.94141c0.6167,0.89795 1.18945,2.3064 1.25537,3.3958c-0.71045,0.0501 -1.56885,0.04219 -2.29102,0.03428c-3.36182,-0.03691 -6.76318,0.06694 -10.12061,-0.04819l0.0835,-0.13169c-0.93457,-1.58555 -1.54834,-2.71143 -2.23535,-4.46968c-1.21143,-3.01875 -2.83008,-6.46494 -4.13965,-9.50786l-10.35059,-23.93906l-4.83252,-11.15522c-0.88623,-2.0811 -2.39941,-5.94551 -3.51855,-7.71665c-1.36963,-2.16753 -3.32227,-3.90586 -5.63379,-5.01636c-3.32666,-1.62686 -7.26855,-1.19487 -10.91016,-1.25435c-6.21533,-0.06519 -12.43066,-0.08159 -18.646,-0.04922l-19.05469,-0.023c-4.02305,-0.01201 -8.01592,-0.02446 -12.04482,0.06665c-4.56987,0.10342 -8.40029,2.16445 -10.97505,5.96484c-1.27734,1.88555 -2.12666,4.18403 -3.01685,6.29019c-1.00415,2.40161 -2.02969,4.79429 -3.07632,7.17773l-11.46958,26.46577c-1.76367,4.05923 -3.62285,8.67363 -5.52715,12.61582c-0.44077,1.24482 -1.31997,3.30103 -1.91865,4.49766l0.17358,0.19497c-1.38472,0.09697 -3.58286,0.03442 -5.04067,0.03486c-2.39429,0.00073 -4.97534,0.04512 -7.35088,-0.04629c-0.38745,-1.16675 0.24009,-2.10454 0.75234,-3.26191z" fill="url(#mask-blue-gradient)"/><path d="M211.63623,127.6834c0.65186,0.46641 0.99463,1.42617 1.35352,2.18979c2.23389,-0.11704 9.28564,0.4166 11.1665,1.43628c0.45703,0.24829 1.18799,0.72568 1.69922,0.74429c0.1377,-0.91772 -1.1748,-2.39839 -0.91113,-3.15088c0.6167,0.89795 1.18945,2.3064 1.25537,3.3958c-0.71045,0.0501 -1.56885,0.04219 -2.29102,0.03428c-3.36182,-0.03691 -6.76318,0.06694 -10.12061,-0.04819l0.0835,-0.13169c-0.93457,-1.58555 -1.54834,-2.71143 -2.23535,-4.46968z" fill="#555555"/><path d="M75.05625,129.02197c0.05435,1.15166 -0.93237,2.24795 -0.37104,2.99063c0.37412,0.07734 0.37603,-0.0334 0.57671,-0.10884c3.17988,-1.1959 8.77676,-2.00845 11.94316,-2.20664c0.27979,-0.01743 0.08599,-1.10464 1.23545,-2.09443c-0.44077,1.24482 -1.31997,3.30103 -1.91865,4.49766l0.17358,0.19497c-1.38472,0.09697 -3.58286,0.03442 -5.04067,0.03486c-2.39429,0.00073 -4.97534,0.04512 -7.35088,-0.04629c-0.38745,-1.16675 0.24009,-2.10454 0.75234,-3.26191z" fill="#555555"/></g></svg>
