<svg width="1200" height="630" viewBox="0 0 1200 630" fill="none" xmlns="http://www.w3.org/2000/svg" role="img" aria-labelledby="title desc">
  <title id="title">Smart Shopping List</title>
  <desc id="desc">Country-aware shopping list app with routing, quantities, sizes, and local storage.</desc>
  <defs>
    <linearGradient id="bg" x1="120" y1="50" x2="1080" y2="580" gradientUnits="userSpaceOnUse">
      <stop stop-color="#0F172A" />
      <stop offset="0.55" stop-color="#111827" />
      <stop offset="1" stop-color="#1D4ED8" />
    </linearGradient>
    <radialGradient id="glow" cx="0" cy="0" r="1" gradientUnits="userSpaceOnUse" gradientTransform="translate(900 140) rotate(140) scale(420 280)">
      <stop stop-color="#38BDF8" stop-opacity="0.55" />
      <stop offset="1" stop-color="#38BDF8" stop-opacity="0" />
    </radialGradient>
  </defs>
  <rect width="1200" height="630" fill="url(#bg)" />
  <rect width="1200" height="630" fill="url(#glow)" />
  <circle cx="980" cy="120" r="110" fill="#22C55E" fill-opacity="0.18" />
  <circle cx="220" cy="520" r="160" fill="#F59E0B" fill-opacity="0.14" />
  <rect x="72" y="72" width="1056" height="486" rx="36" fill="#0B1220" fill-opacity="0.72" stroke="#334155" stroke-width="2" />
  <rect x="108" y="108" width="80" height="80" rx="22" fill="#1D4ED8" />
  <path d="M132 142C132 129.85 141.85 120 154 120C166.15 120 176 129.85 176 142C176 154.15 166.15 164 154 164C141.85 164 132 154.15 132 142Z" fill="white" fill-opacity="0.95" />
  <path d="M121 196H187" stroke="white" stroke-opacity="0.9" stroke-width="6" stroke-linecap="round" />
  <text x="220" y="148" fill="#F8FAFC" font-size="52" font-weight="700" font-family="Inter, ui-sans-serif, system-ui, -apple-system, BlinkMacSystemFont, 'Segoe UI', sans-serif">Smart Shopping List</text>
  <text x="220" y="198" fill="#CBD5E1" font-size="24" font-weight="500" font-family="Inter, ui-sans-serif, system-ui, -apple-system, BlinkMacSystemFont, 'Segoe UI', sans-serif">Paste a list, auto-sort the aisle route, and share a cleaner plan.</text>

  <g transform="translate(108 260)">
    <rect width="984" height="242" rx="28" fill="#111827" fill-opacity="0.88" stroke="#334155" />
    <text x="36" y="58" fill="#A5F3FC" font-size="20" font-weight="700" font-family="Inter, ui-sans-serif, system-ui, -apple-system, BlinkMacSystemFont, 'Segoe UI', sans-serif" letter-spacing="2">WHAT IT HANDLES</text>

    <g transform="translate(36 92)">
      <rect width="238" height="52" rx="16" fill="#1E293B" />
      <text x="20" y="33" fill="#E2E8F0" font-size="22" font-weight="600" font-family="Inter, ui-sans-serif, system-ui, -apple-system, BlinkMacSystemFont, 'Segoe UI', sans-serif">Quantities</text>
    </g>
    <g transform="translate(290 92)">
      <rect width="190" height="52" rx="16" fill="#1E293B" />
      <text x="20" y="33" fill="#E2E8F0" font-size="22" font-weight="600" font-family="Inter, ui-sans-serif, system-ui, -apple-system, BlinkMacSystemFont, 'Segoe UI', sans-serif">Sizes</text>
    </g>
    <g transform="translate(496 92)">
      <rect width="222" height="52" rx="16" fill="#1E293B" />
      <text x="20" y="33" fill="#E2E8F0" font-size="22" font-weight="600" font-family="Inter, ui-sans-serif, system-ui, -apple-system, BlinkMacSystemFont, 'Segoe UI', sans-serif">Milk aliases</text>
    </g>
    <g transform="translate(734 92)">
      <rect width="214" height="52" rx="16" fill="#1E293B" />
      <text x="20" y="33" fill="#E2E8F0" font-size="22" font-weight="600" font-family="Inter, ui-sans-serif, system-ui, -apple-system, BlinkMacSystemFont, 'Segoe UI', sans-serif">Store routing</text>
    </g>

    <text x="36" y="186" fill="#F8FAFC" font-size="28" font-weight="600" font-family="Inter, ui-sans-serif, system-ui, -apple-system, BlinkMacSystemFont, 'Segoe UI', sans-serif">Built for quick edits, tidy sharing, and faster shops.</text>
  </g>
</svg>
